<svg width="70" height="76" viewBox="0 0 70 76" fill="none" xmlns="http://www.w3.org/2000/svg">
<path fill-rule="evenodd" clip-rule="evenodd" d="M24.6853 16.3095C14.7699 14.5038 6.92938 16.3925 3.80407 21.8061C1.47194 25.8443 2.13827 31.1998 5.42008 36.9228C5.55484 37.1562 5.77654 37.3268 6.0367 37.3972C6.29687 37.4677 6.57434 37.4322 6.80845 37.2986C7.04188 37.1639 7.21246 36.9422 7.28289 36.682C7.35332 36.4218 7.31787 36.1444 7.18429 35.9103C4.22853 30.7528 3.6535 26.1324 5.56473 22.821C8.17311 18.3251 15.1541 16.6391 24.3213 18.3085C24.5865 18.3559 24.8596 18.2964 25.0811 18.1432C25.3025 17.9899 25.4544 17.7552 25.5034 17.4904C25.5508 17.2252 25.4914 16.9521 25.3381 16.7306C25.1848 16.5092 24.9502 16.3573 24.6853 16.3083V16.3095ZM10.5764 43.8682C14.5862 48.274 19.7946 52.4071 25.7358 55.8371C40.1317 64.1424 55.444 66.3714 62.9811 61.2258C63.2033 61.0733 63.3561 60.839 63.4061 60.5742C63.4561 60.3094 63.3992 60.0355 63.2478 59.8125C63.0954 59.5903 62.8611 59.4375 62.5963 59.3875C62.3314 59.3375 62.0576 59.3944 61.8346 59.5457C55.0801 64.1507 40.5336 62.0427 26.74 54.0859C20.9779 50.7591 15.933 46.7564 12.0679 42.5095C11.886 42.3105 11.6326 42.1917 11.3634 42.1791C11.0941 42.1664 10.8307 42.2609 10.6309 42.4419C10.432 42.6238 10.3132 42.8771 10.3005 43.1464C10.2878 43.4157 10.3823 43.6791 10.5633 43.8789L10.5764 43.8682ZM60.5837 42.6434C67.0762 34.9724 69.3431 27.2588 66.225 21.8594C63.9308 17.8852 59.0804 15.7866 52.6329 15.7036C52.3635 15.7008 52.1039 15.8047 51.9109 15.9926C51.7178 16.1806 51.607 16.4373 51.6026 16.7067C51.5998 16.9761 51.7037 17.2357 51.8916 17.4287C52.0795 17.6218 52.3363 17.7326 52.6057 17.737C58.4152 17.8129 62.5827 19.6198 64.4619 22.8767C67.0525 27.3631 65.031 34.2421 59.0294 41.3321C58.8557 41.5382 58.7706 41.8047 58.7929 42.0733C58.8151 42.3419 58.9427 42.5908 59.1479 42.7656C59.354 42.9393 59.6205 43.0243 59.8891 43.0021C60.1577 42.9799 60.4066 42.8522 60.5814 42.647L60.5837 42.6434ZM43.8972 16.6462C38.0284 17.903 31.7778 20.3631 25.7773 23.8275C10.9285 32.3996 1.24193 45.0538 2.58525 54.2069C2.62511 54.4733 2.76882 54.7132 2.98498 54.874C3.20114 55.0349 3.47217 55.1036 3.73886 55.0653C4.00533 55.0254 4.24519 54.8817 4.40603 54.6655C4.56688 54.4494 4.63562 54.1783 4.59726 53.9116C3.40333 45.7735 12.5848 33.7916 26.7922 25.5752C32.6018 22.2139 38.6639 19.8332 44.3217 18.6203C44.5849 18.5631 44.8149 18.4041 44.9613 18.1779C45.1077 17.9518 45.1586 17.6769 45.103 17.4133C45.0459 17.15 44.8868 16.9201 44.6607 16.7737C44.4345 16.6273 44.1596 16.5764 43.896 16.632L43.8972 16.6462Z" fill="#47848F"/>
<path fill-rule="evenodd" clip-rule="evenodd" d="M19.8421 60.5642C23.2365 70.0433 28.79 75.8801 35.0359 75.8801C39.591 75.8801 43.8048 72.7738 47.0901 67.308C47.2284 67.0767 47.2694 66.8001 47.2043 66.5386C47.1392 66.2771 46.9733 66.0521 46.7427 65.9126C46.5114 65.7743 46.2348 65.7333 45.9733 65.7983C45.7118 65.8634 45.4868 66.0294 45.3473 66.2599C42.3832 71.172 38.767 73.8444 35.0359 73.8444C29.8487 73.8444 24.8952 68.6276 21.7568 59.8777C21.6652 59.6242 21.477 59.4173 21.2333 59.3022C20.9895 59.1871 20.7102 59.1732 20.4562 59.2636C20.2027 59.3552 19.9958 59.5434 19.8807 59.7871C19.7656 60.0309 19.7517 60.3102 19.8421 60.5642ZM50.8497 58.7099C52.6068 53.0936 53.5506 46.6165 53.5506 39.8643C53.5506 23.019 47.6545 8.49739 39.2567 4.76978C39.0101 4.66108 38.7305 4.65444 38.479 4.7513C38.2275 4.84817 38.0245 5.04067 37.9146 5.28671C37.8059 5.53333 37.7992 5.81295 37.8961 6.06445C37.993 6.31595 38.1854 6.51886 38.4315 6.62884C45.9223 9.95334 51.5161 23.7363 51.5161 39.8655C51.5161 46.4149 50.6031 52.6893 48.9077 58.104C48.8278 58.3614 48.853 58.64 48.9779 58.8788C49.1027 59.1176 49.3171 59.2973 49.574 59.3786C49.8314 59.4585 50.1099 59.4333 50.3488 59.3084C50.5876 59.1835 50.7673 58.9692 50.8486 58.7122L50.8497 58.7099ZM70 57.7139C70 55.0261 67.8208 52.847 65.133 52.847C62.4452 52.847 60.2541 55.0131 60.2541 57.7139C60.2541 60.4148 62.4333 62.5809 65.1211 62.5809C67.809 62.5809 69.9881 60.4018 69.9881 57.7139H70ZM67.9666 57.7139C67.9663 58.4651 67.6678 59.1853 67.1367 59.7165C66.6056 60.2476 65.8853 60.5461 65.1342 60.5464C64.3831 60.5461 63.6628 60.2476 63.1317 59.7165C62.6006 59.1853 62.302 58.4651 62.3017 57.7139C62.302 56.9628 62.6006 56.2426 63.1317 55.7114C63.6628 55.1803 64.3831 54.8818 65.1342 54.8815C65.8853 54.8818 66.6056 55.1803 67.1367 55.7114C67.6678 56.2426 67.9663 56.9628 67.9666 57.7139V57.7139Z" fill="#47848F"/>
<path fill-rule="evenodd" clip-rule="evenodd" d="M4.86641 62.5809C7.55422 62.5809 9.7334 60.4018 9.7334 57.7139C9.7334 55.0261 7.55422 52.8469 4.86641 52.8469C3.5756 52.8471 2.33772 53.36 1.42509 54.2729C0.512463 55.1857 -0.000157188 56.4237 3.61555e-08 57.7145C0.00015726 59.0053 0.513079 60.2432 1.42593 61.1558C2.33878 62.0685 3.57678 62.5811 4.86759 62.5809H4.86641ZM4.86641 60.5476C4.11529 60.5473 3.39502 60.2488 2.8639 59.7176C2.33278 59.1865 2.03426 58.4662 2.03394 57.7151C2.03426 56.964 2.33278 56.2437 2.8639 55.7126C3.39502 55.1815 4.11529 54.883 4.86641 54.8827C5.61753 54.883 6.33779 55.1815 6.86891 55.7126C7.40003 56.2437 7.69855 56.964 7.69887 57.7151C7.69855 58.4662 7.40003 59.1865 6.86891 59.7176C6.33779 60.2488 5.61753 60.5473 4.86641 60.5476V60.5476ZM35.0359 9.72214C37.7237 9.72214 39.9029 7.54296 39.9029 4.85514C39.9029 2.16733 37.7225 0 35.0359 0C32.3492 0 30.1689 2.17918 30.1689 4.867C30.1689 7.55481 32.348 9.72214 35.0359 9.72214ZM35.0359 7.68879C34.2847 7.68848 33.5645 7.38996 33.0334 6.85883C32.5022 6.32771 32.2037 5.60745 32.2034 4.85633C32.2037 4.10521 32.5022 3.38494 33.0334 2.85382C33.5645 2.3227 34.2847 2.02418 35.0359 2.02386C35.787 2.02418 36.5073 2.3227 37.0384 2.85382C37.5695 3.38494 37.868 4.10521 37.8683 4.85633C37.868 5.60745 37.5695 6.32771 37.0384 6.85883C36.5073 7.38996 35.787 7.68848 35.0359 7.68879V7.68879ZM35.7781 43.305C35.3248 43.4059 34.8561 43.4163 34.3989 43.3353C33.9417 43.2544 33.505 43.0838 33.114 42.8335C32.7229 42.5831 32.3852 42.2579 32.1204 41.8765C31.8555 41.4952 31.6687 41.0652 31.5707 40.6113C31.4727 40.1574 31.4654 39.6887 31.5492 39.232C31.6331 38.7753 31.8064 38.3397 32.0593 37.9503C32.3121 37.5608 32.6395 37.2253 33.0226 36.9629C33.4056 36.7004 33.8368 36.5164 34.2913 36.4213C34.7445 36.3203 35.2132 36.31 35.6704 36.391C36.1277 36.4719 36.5644 36.6424 36.9554 36.8928C37.3464 37.1432 37.6841 37.4684 37.949 37.8498C38.2138 38.2311 38.4007 38.6611 38.4987 39.115C38.5967 39.5688 38.604 40.0376 38.5201 40.4943C38.4363 40.951 38.263 41.3866 38.0101 41.776C37.7572 42.1654 37.4298 42.501 37.0468 42.7634C36.6637 43.0258 36.2325 43.2099 35.7781 43.305V43.305Z" fill="#47848F"/>
</svg>
