<svg width="17" height="22" viewBox="0 0 17 22" fill="currentColor" xmlns="http://www.w3.org/2000/svg">
<path fill-rule="evenodd" clip-rule="evenodd" d="M9.96054 0.0544142C10.2041 0.131025 10.417 0.283352 10.568 0.489241C10.7191 0.695131 10.8006 0.943846 10.8005 1.19921V7.19921H15.6005C15.82 7.19912 16.0354 7.25923 16.2231 7.373C16.4108 7.48678 16.5637 7.64986 16.6652 7.84451C16.7666 8.03915 16.8128 8.25789 16.7985 8.47693C16.7843 8.69597 16.7103 8.90692 16.5845 9.08681L8.18453 21.0868C8.03834 21.2963 7.82913 21.4536 7.58734 21.5359C7.34555 21.6183 7.0838 21.6213 6.84017 21.5446C6.59654 21.4679 6.38374 21.3154 6.23272 21.1094C6.08171 20.9034 6.00037 20.6546 6.00053 20.3992V14.3992H1.20053C0.981032 14.3993 0.765708 14.3392 0.577995 14.2254C0.390282 14.1116 0.237372 13.9486 0.135906 13.7539C0.0344391 13.5593 -0.0116964 13.3405 0.0025198 13.1215C0.016736 12.9025 0.0907594 12.6915 0.216534 12.5116L8.61653 0.511614C8.76295 0.302558 8.9722 0.145629 9.2139 0.0636256C9.45559 -0.018378 9.71714 -0.0211844 9.96054 0.0556143V0.0544142Z" fill="currentColor"/>
</svg>
