<svg width="21" height="13" viewBox="0 0 21 13" fill="none" xmlns="http://www.w3.org/2000/svg">
<path d="M5.25 4.2C5.95 1.4 7.7 0 10.5 0C14.7 0 15.225 3.15 17.325 3.675C18.725 4.025 19.95 3.5 21 2.1C20.3 4.9 18.55 6.3 15.75 6.3C11.55 6.3 11.025 3.15 8.925 2.625C7.525 2.275 6.3 2.8 5.25 4.2ZM0 10.5C0.7 7.7 2.45 6.3 5.25 6.3C9.45 6.3 9.975 9.45 12.075 9.975C13.475 10.325 14.7 9.8 15.75 8.4C15.05 11.2 13.3 12.6 10.5 12.6C6.3 12.6 5.775 9.45 3.675 8.925C2.275 8.575 1.05 9.1 0 10.5Z" fill="#44A8B3"/>
</svg>
